<svg xmlns="http://www.w3.org/2000/svg" xmlns:xlink="http://www.w3.org/1999/xlink" width="500" zoomAndPan="magnify" viewBox="0 0 375 374.999991" height="500" preserveAspectRatio="xMidYMid meet" version="1.0"><defs><clipPath id="id1"><path d="M 43 72.628906 L 281 72.628906 L 281 217 L 43 217 Z M 43 72.628906 " clip-rule="nonzero"/></clipPath><clipPath id="id2"><path d="M 86 170 L 327 170 L 327 280.378906 L 86 280.378906 Z M 86 170 " clip-rule="nonzero"/></clipPath></defs><g clip-path="url(#id1)"><path fill="#d2e161" d="M 111.335938 199.003906 L 140.367188 215.75 C 152.429688 218.09375 165.132812 209.5625 173.988281 202.097656 C 194.375 181.195312 218.925781 163.917969 247.847656 158.480469 L 152.75 103.554688 C 161.714844 99.714844 171.640625 97.691406 181.996094 97.691406 C 218.390625 97.691406 248.808594 123.5 255.855469 157.734375 C 264.179688 156.558594 272.183594 156.347656 280.617188 157.414062 C 273.144531 109.742188 231.839844 73.160156 181.996094 73.160156 C 162.035156 73.160156 143.464844 79.027344 127.773438 89.160156 L 102.050781 74.335938 C 95.542969 70.601562 87.214844 72.839844 83.480469 79.347656 L 45.375 145.253906 C 41.640625 151.761719 43.882812 160.078125 50.394531 163.8125 L 62.667969 170.957031 L 62.5625 170.742188 L 111.125 199.113281 L 111.125 199.003906 Z M 117.527344 133.949219 C 121.265625 141.949219 148.054688 137.363281 148.054688 156.238281 C 148.054688 166.265625 140.796875 171.808594 131.191406 172.769531 L 131.191406 182.902344 L 122.011719 182.902344 L 122.011719 172.34375 C 115.714844 171.171875 110.164062 168.503906 105.148438 164.023438 L 111.015625 157.09375 C 113.6875 159.4375 116.460938 161.144531 119.234375 162.425781 C 125.746094 165.304688 138.449219 165.625 138.449219 157.199219 C 138.449219 144.613281 107.386719 153.46875 107.386719 132.03125 C 107.386719 123.285156 113.6875 117.527344 122.117188 116.140625 L 122.117188 105.796875 L 131.296875 105.796875 L 131.296875 116.140625 C 136.953125 116.886719 141.863281 119.234375 146.347656 122.753906 L 141.117188 130.109375 C 138.554688 128.296875 136.097656 126.804688 133.539062 125.84375 C 126.601562 123.074219 116.996094 124.03125 116.996094 131.070312 C 116.996094 132.136719 117.207031 133.097656 117.527344 133.949219 Z M 117.527344 133.949219 " fill-opacity="1" fill-rule="evenodd"/></g><g clip-path="url(#id2)"><path fill="#21565a" d="M 257.453125 171.382812 C 232.050781 174.15625 207.503906 187.914062 183.703125 212.550781 C 163.421875 229.613281 145.386719 234.414062 129.480469 227.054688 C 125.960938 225.453125 122.652344 223.214844 119.34375 220.335938 L 86.253906 200.925781 C 88.175781 207.644531 90.84375 214.148438 94.152344 220.121094 C 111.65625 249.449219 146.878906 265.445312 181.566406 257.128906 C 214.867188 247.957031 241.871094 232.171875 262.792969 209.882812 C 244.539062 243.371094 207.824219 262.78125 152.644531 268.328125 C 152.964844 268.328125 183.167969 288.484375 223.085938 276.75 C 246.78125 269.820312 266.527344 253.503906 277.734375 231.53125 C 289.046875 212.550781 306.339844 197.832031 326.832031 189.621094 C 304.84375 175.96875 281.578125 168.609375 257.453125 171.277344 Z M 257.453125 171.382812 " fill-opacity="1" fill-rule="evenodd"/></g></svg>