<?xml version="1.0" encoding="UTF-8"?>
<svg width="1200pt" height="1200pt" version="1.1" viewBox="0 0 1200 1200" xmlns="http://www.w3.org/2000/svg">
 <g fill="#20555a">
  <path d="m575.95 801.64 71.191-54.492 10.422 13.617-71.191 54.492z"/>
  <path d="m990.65 977.25 26.59-85.617 16.363 5.082-26.59 85.617z"/>
  <path d="m893.21 689.91 18.191 87.789-16.781 3.4766-18.191-87.789z"/>
  <path d="m1012.1 484.13-34.156 82.891-15.832-6.5234 34.156-82.891z"/>
  <path d="m957.62 153.42 69.695 56.391-10.77 13.312-69.695-56.391z"/>
  <path d="m200.18 467.38 88.996 10.812-2.0664 17.012-88.996-10.812z"/>
  <path d="m174.85 252.1 59.387 67.168-12.84 11.352-59.387-67.168z"/>
  <path d="m198.17 809.09 89.113-9.8438 1.8828 17.031-89.113 9.8438z"/>
  <path d="m273.43 910.16 22.645 86.746-16.582 4.3281-22.645-86.746z"/>
  <path d="m535.66 233.85-14.73-88.434 16.902-2.8164 14.73 88.434z"/>
  <path d="m752.11 433.01 75.066-49.012 9.3672 14.348-75.066 49.012z"/>
  <path d="m410.51 496.84 38.02-81.188 15.527 7.2734-38.02 81.188z"/>
  <path d="m279.35 232.19c-2.3047 0-4.6328-0.78125-6.5391-2.3867-4.3203-3.6133-4.8828-10.043-1.2617-14.363 5.3281-6.3594 7.8594-14.426 7.1289-22.703-0.74219-8.2812-4.6562-15.77-11.027-21.098-6.3711-5.3281-14.398-7.8359-22.715-7.1172-8.2695 0.74219-15.77 4.6562-21.098 11.027-3.6016 4.3086-10.043 4.8945-14.363 1.2734-4.3203-3.6133-4.8945-10.043-1.2734-14.363 8.8203-10.547 21.227-17.027 34.934-18.254 13.727-1.2109 27.059 2.9766 37.609 11.785 10.547 8.8086 17.039 21.227 18.266 34.934 1.2227 13.703-2.9766 27.059-11.809 37.609-2.043 2.4219-4.9336 3.6562-7.8516 3.6562z"/>
  <path d="m763.64 621.39c-2.6875 0-5.3516-1.043-7.3555-3.1328-9.5273-9.9102-14.617-22.957-14.328-36.719 0.28906-13.766 5.8906-26.578 15.805-36.109 9.9375-9.5273 22.906-14.449 36.73-14.328 13.754 0.27734 26.578 5.9023 36.098 15.84 3.8984 4.0664 3.7578 10.523-0.30078 14.426-4.043 3.8984-10.512 3.7578-14.41-0.30078-5.7461-6-13.488-9.3945-21.793-9.5625-8.7227-0.12109-16.188 2.9023-22.176 8.6523-5.9883 5.7461-9.3711 13.488-9.5508 21.793-0.16797 8.3164 2.9023 16.188 8.6641 22.176 3.8984 4.0547 3.7695 10.523-0.28906 14.426-2.0078 1.9062-4.5508 2.8398-7.0938 2.8398z"/>
  <path d="m577.3 645.86c-1.9062 0.011719-3.8281-0.52734-5.543-1.6445-4.7266-3.0703-6.0586-9.3945-2.9883-14.125 4.5234-6.9609 6.0703-15.266 4.3438-23.398-1.7266-8.125-6.5039-15.098-13.477-19.621-6.9609-4.5234-15.289-6.0586-23.398-4.332-8.1367 1.7266-15.098 6.5039-19.621 13.477-3.0586 4.7148-9.3828 6.0586-14.113 3-4.7266-3.0586-6.0703-9.3828-3-14.113 7.4883-11.531 19.02-19.465 32.484-22.32 13.465-2.8438 27.227-0.30078 38.762 7.1875 11.531 7.5 19.465 19.031 22.32 32.496 2.8555 13.465 0.30078 27.227-7.2109 38.762-1.9492 3.0117-5.2227 4.6328-8.5586 4.6328z"/>
  <path d="m566.26 977c-3.625 0-7.1406-1.9453-8.9883-5.3516-6.5391-12.098-7.9922-26.016-4.043-39.203 3.9375-13.199 12.758-24.059 24.852-30.602 12.109-6.5391 26.039-7.9688 39.227-4.043 13.188 3.9375 24.047 12.77 30.574 24.875 2.6758 4.957 0.81641 11.148-4.1406 13.812-4.9688 2.6875-11.16 0.81641-13.812-4.1406-3.9375-7.2969-10.488-12.637-18.457-15.012-7.9688-2.3633-16.379-1.5117-23.688 2.4492-7.3086 3.9492-12.637 10.5-15.012 18.469s-1.5 16.367 2.4492 23.676c2.6875 4.9453 0.83984 11.148-4.1172 13.812-1.5469 0.86328-3.2031 1.2578-4.8438 1.2578z"/>
  <path d="m575.36 401.93c-9.5273 0-18.898-2.6641-27.18-7.8477-11.676-7.2852-19.801-18.695-22.883-32.102-1.2617-5.4961 2.1602-10.969 7.6445-12.227 5.5078-1.2969 10.969 2.1602 12.227 7.6445 1.8711 8.1016 6.7695 14.977 13.824 19.379 7.043 4.4023 15.406 5.7969 23.473 3.9258 8.0898-1.8711 14.977-6.7812 19.367-13.824 4.4023-7.043 5.7969-15.395 3.9375-23.484-1.2734-5.4961 2.1484-10.969 7.6445-12.238 5.4961-1.2852 10.969 2.1484 12.238 7.6445 3.0977 13.402 0.78125 27.203-6.5039 38.879-7.2852 11.676-18.684 19.801-32.074 22.895-3.9023 0.91016-7.8242 1.3555-11.715 1.3555z"/>
  <path d="m829.02 251.66c-5.6406 0-11.293-0.9375-16.777-2.8203-13.008-4.4648-23.496-13.738-29.531-26.102-6.0352-12.371-6.8867-26.352-2.4102-39.359 1.8242-5.3281 7.6328-8.1719 12.973-6.3242 5.3164 1.8359 8.1602 7.6445 6.3125 12.973-2.7109 7.8477-2.1953 16.297 1.4531 23.762 3.6484 7.4648 9.9844 13.055 17.832 15.758 7.8477 2.7109 16.285 2.1719 23.746-1.4648 7.4648-3.6484 13.066-9.9844 15.77-17.832 1.8242-5.3398 7.6328-8.1836 12.961-6.3242 5.3281 1.8359 8.1602 7.6328 6.3242 12.961-4.4766 12.996-13.754 23.496-26.113 29.52-7.1289 3.5-14.812 5.2539-22.539 5.2539z"/>
  <path d="m883.44 987.18c-9.0703 0-18.012-2.4102-26.027-7.1406-11.867-6.9727-20.293-18.156-23.746-31.465-3.457-13.297-1.5234-27.168 5.4609-39.023 6.9727-11.855 18.156-20.293 31.477-23.746 5.4492-1.4414 11.016 1.8711 12.434 7.3203 1.4023 5.4609-1.8711 11.016-7.3203 12.434-8.0391 2.0742-14.785 7.1641-19.008 14.328-4.2109 7.1523-5.375 15.516-3.2891 23.555 2.0898 8.0391 7.1875 14.785 14.34 18.996 7.1758 4.2227 15.539 5.4102 23.578 3.3008 5.3633-1.4141 11.016 1.8594 12.434 7.3203 1.4023 5.4492-1.8594 11.016-7.3203 12.434-4.3125 1.1367-8.6797 1.6875-13.012 1.6875z"/>
  <path d="m240.79 718.27c-5.6055 0-10.164-4.5117-10.199-10.129-0.097656-13.754 5.1602-26.723 14.82-36.516 9.6602-9.8047 22.547-15.254 36.301-15.348 13.98-0.12109 26.711 5.1367 36.516 14.773 9.8047 9.6719 15.266 22.57 15.348 36.336 0.035156 5.6406-4.5 10.234-10.141 10.262-5.4492-0.28906-10.234-4.5-10.262-10.129-0.046875-8.3164-3.3477-16.117-9.2656-21.938-5.9141-5.832-14.027-8.9023-22.031-8.9297-8.3164 0.058594-16.094 3.3594-21.938 9.2773-5.832 5.9141-9.0117 13.754-8.9531 22.055 0.035157 5.6289-4.5 10.234-10.129 10.262-0.007813 0.023438-0.042969 0.023438-0.066406 0.023438z"/>
  <path d="m431.05 947.18c-13.645 0-26.484-5.2695-36.191-14.879-9.7812-9.6719-15.227-22.57-15.301-36.312-0.097656-13.754 5.1836-26.711 14.855-36.492 9.6836-9.793 22.598-15.227 36.371-15.277h0.046875c5.6172 0 10.176 4.5352 10.199 10.152 0.023438 5.6406-4.5234 10.223-10.152 10.246-8.3164 0.046875-16.117 3.3125-21.961 9.2383-5.832 5.9023-9.0117 13.727-8.9648 22.02 0.046875 8.3047 3.3242 16.105 9.2383 21.949 5.9141 5.8438 14.062 8.5547 22.031 8.9883h0.058594c5.6055 0 10.164 4.5234 10.199 10.141 0.023437 5.6406-4.5117 10.234-10.141 10.246-0.082032-0.019531-0.19141-0.019531-0.28906-0.019531z"/>
 </g>
</svg>
