<svg xmlns="http://www.w3.org/2000/svg" xmlns:xlink="http://www.w3.org/1999/xlink" width="500" zoomAndPan="magnify" viewBox="0 0 375 374.999991" height="500" preserveAspectRatio="xMidYMid meet" version="1.0"><path fill="#d2e161" d="M 135.382812 58.644531 L 135.382812 283.640625 C 136.042969 283.6875 136.699219 283.6875 137.355469 283.6875 L 245.5 283.6875 L 245.5 58.644531 L 135.382812 58.644531 M 262.417969 58.644531 L 245.5 58.644531 L 245.5 283.640625 L 245.875 283.640625 C 273.226562 283.640625 297.242188 261.265625 299.214844 233.941406 L 308.472656 108.296875 C 310.496094 81.019531 289.769531 58.644531 262.417969 58.644531 M 120.8125 58.644531 C 93.460938 58.644531 72.734375 81.019531 74.757812 108.34375 L 84.015625 233.988281 C 85.988281 260.652344 108.921875 282.605469 135.429688 283.640625 L 135.429688 58.644531 L 120.8125 58.644531 " fill-opacity="1" fill-rule="nonzero"/></svg>