<svg xmlns="http://www.w3.org/2000/svg" xmlns:xlink="http://www.w3.org/1999/xlink" width="500" zoomAndPan="magnify" viewBox="0 0 375 374.999991" height="500" preserveAspectRatio="xMidYMid meet" version="1.0"><defs><clipPath id="id1"><path d="M 7 7 L 368 7 L 368 369 L 7 369 Z M 7 7 " clip-rule="nonzero"/></clipPath><clipPath id="id2"><path d="M 9.296875 0 L 375.175781 9.300781 L 365.878906 375.179688 L -0.00390625 365.882812 Z M 9.296875 0 " clip-rule="nonzero"/></clipPath><clipPath id="id3"><path d="M 9.296875 0 L 375.175781 9.300781 L 365.878906 375.179688 L -0.00390625 365.882812 Z M 9.296875 0 " clip-rule="nonzero"/></clipPath><clipPath id="id4"><path d="M 4 4 L 371 4 L 371 371 L 4 371 Z M 4 4 " clip-rule="nonzero"/></clipPath><clipPath id="id5"><path d="M 9.296875 0 L 375.175781 9.300781 L 365.878906 375.179688 L -0.00390625 365.882812 Z M 9.296875 0 " clip-rule="nonzero"/></clipPath><clipPath id="id6"><path d="M 9.296875 0 L 375.175781 9.300781 L 365.878906 375.179688 L -0.00390625 365.882812 Z M 9.296875 0 " clip-rule="nonzero"/></clipPath></defs><g clip-path="url(#id1)"><g clip-path="url(#id2)"><g clip-path="url(#id3)"><path fill="#d2e161" d="M 192.171875 7.175781 L 224.226562 105.128906 L 318.402344 63.261719 L 271.804688 155.1875 L 368 192.175781 L 270.050781 224.230469 L 311.917969 318.40625 L 219.988281 271.808594 L 183 368.007812 L 150.945312 270.054688 L 56.769531 311.921875 L 103.367188 219.992188 L 7.171875 183.003906 L 105.121094 150.953125 L 63.253906 56.773438 L 155.183594 103.371094 Z M 192.171875 7.175781 " fill-opacity="1" fill-rule="nonzero"/></g></g></g><g clip-path="url(#id4)"><g clip-path="url(#id5)"><g clip-path="url(#id6)"><path fill="#d2e161" d="M 182.9375 370.53125 C 181.867188 370.503906 180.933594 369.808594 180.597656 368.792969 L 149.417969 273.5 L 57.796875 314.230469 C 56.820312 314.664062 55.675781 314.4375 54.9375 313.660156 C 54.203125 312.886719 54.035156 311.730469 54.515625 310.777344 L 99.847656 221.347656 L 6.265625 185.363281 C 5.265625 184.980469 4.617188 184.007812 4.644531 182.941406 C 4.671875 181.871094 5.367188 180.9375 6.386719 180.605469 L 101.675781 149.421875 L 60.945312 57.800781 C 60.511719 56.824219 60.738281 55.679688 61.515625 54.945312 C 62.289062 54.207031 63.445312 54.039062 64.398438 54.523438 L 153.828125 99.855469 L 189.8125 6.269531 C 190.199219 5.269531 191.167969 4.621094 192.234375 4.648438 C 193.304688 4.675781 194.242188 5.375 194.574219 6.390625 L 225.757812 101.683594 L 317.375 60.953125 C 318.351562 60.519531 319.496094 60.746094 320.230469 61.519531 C 320.96875 62.292969 321.136719 63.449219 320.65625 64.402344 L 275.324219 153.835938 L 368.910156 189.816406 C 369.90625 190.203125 370.554688 191.171875 370.527344 192.242188 C 370.5 193.308594 369.804688 194.246094 368.789062 194.578125 L 273.496094 225.761719 L 314.226562 317.378906 C 314.660156 318.355469 314.433594 319.5 313.65625 320.238281 C 312.882812 320.972656 311.730469 321.144531 310.773438 320.660156 L 221.34375 275.328125 L 185.359375 368.914062 C 184.976562 369.910156 184.003906 370.558594 182.9375 370.53125 Z M 151.011719 267.527344 C 151.339844 267.535156 151.667969 267.609375 151.972656 267.746094 C 152.625 268.035156 153.125 268.589844 153.347656 269.269531 L 183.191406 360.46875 L 217.628906 270.902344 C 217.886719 270.234375 218.414062 269.707031 219.082031 269.453125 C 219.75 269.195312 220.492188 269.234375 221.132812 269.554688 L 306.722656 312.941406 L 267.742188 225.257812 C 267.453125 224.601562 267.453125 223.855469 267.742188 223.203125 C 268.03125 222.550781 268.585938 222.050781 269.265625 221.828125 L 360.460938 191.984375 L 270.898438 157.546875 C 270.230469 157.289062 269.703125 156.761719 269.445312 156.09375 C 269.191406 155.429688 269.226562 154.683594 269.550781 154.046875 L 312.933594 68.453125 L 225.25 107.4375 C 224.597656 107.726562 223.851562 107.726562 223.199219 107.4375 C 222.546875 107.144531 222.046875 106.59375 221.824219 105.914062 L 191.980469 14.714844 L 157.542969 104.28125 C 157.285156 104.945312 156.757812 105.472656 156.089844 105.730469 C 155.421875 105.988281 154.679688 105.949219 154.042969 105.625 L 68.449219 62.242188 L 107.429688 149.925781 C 107.722656 150.578125 107.722656 151.324219 107.429688 151.976562 C 107.140625 152.632812 106.589844 153.128906 105.90625 153.351562 L 14.710938 183.195312 L 104.273438 217.632812 C 104.941406 217.890625 105.46875 218.417969 105.726562 219.085938 C 105.984375 219.753906 105.945312 220.496094 105.621094 221.136719 L 62.234375 306.726562 L 149.921875 267.746094 C 150.265625 267.59375 150.640625 267.519531 151.011719 267.527344 Z M 151.011719 267.527344 " fill-opacity="1" fill-rule="nonzero"/></g></g></g></svg>